Coordinates
version=1
nRows=14
nColumns=24
inDegrees=yes

Units are S.I. units (second, meters, Newtons, ...)
Angles are in degrees.

endheader
time	pelvis_tilt	pelvis_list	pelvis_rotation	pelvis_tx	pelvis_ty	pelvis_tz	hip_flexion_r	hip_adduction_r	hip_rotation_r	knee_angle_r	ankle_angle_r	subtalar_angle_r	mtp_angle_r	hip_flexion_l	hip_adduction_l	hip_rotation_l	knee_angle_l	ankle_angle_l	subtalar_angle_l	mtp_angle_l	lumbar_extension	lumbar_bending	lumbar_rotation
      1.05700000	     -4.89442417	     -1.06765378	      3.51031348	      0.50705037	      0.99876181	      0.34289543	     14.98905927	      4.61726888	      1.85702404	    -20.65331299	     12.84579777	     -8.20472774	      1.14039114	     22.95436911	     -1.21224443	      1.04665908	    -71.35975371	      1.34877322	     -3.61011974	      4.56060616	     -6.25250274	      9.32469087	     -1.76367939
      1.06116667	     -4.85327283	     -0.94162756	      3.35123721	      0.51167211	      0.99960132	      0.34326101	     14.42848322	      4.55542361	      2.06034539	    -20.18936016	     12.87519476	     -8.23846018	      1.15400854	     23.47328693	     -1.19823342	      0.85739497	    -70.96076195	      1.95690721	     -3.29220518	      4.50379240	     -6.34185563	      9.10869806	     -1.40182517
      1.06533333	     -4.83989929	     -0.80836339	      3.18834192	      0.51627023	      1.00036748	      0.34360827	     13.90695437	      4.48096065	      2.27693749	    -19.74214692	     12.87369156	     -8.27245655	      1.16823013	     24.00957036	     -1.17110416	      0.66889181	    -70.51600280	      2.52421006	     -3.05876151	      4.43640703	     -6.41233645	      8.89608937	     -1.10081144
      1.06950000	     -4.81287344	     -0.63464271	      3.00948297	      0.52085685	      1.00112451	      0.34392252	     13.38912986	      4.35483931	      2.47876683	    -19.33582760	     12.87015815	     -8.23760971	      1.17769947	     24.50447524	     -1.09961588	      0.46115830	    -70.00644974	      3.05732307	     -2.90027150	      4.39736275	     -6.49837209	      8.65880071	     -0.91605628
      1.07366667	     -4.76487076	     -0.50930575	      2.85340127	      0.52547929	      1.00187648	      0.34423811	     12.81863930	      4.28028800	      2.68932061	    -18.86256239	     12.90530091	     -8.27420844	      1.19366855	     24.97255962	     -1.08370908	      0.28706480	    -69.46535722	      3.54857648	     -2.67280767	      4.32036241	     -6.59938416	      8.44368977	     -0.55010893
      1.07783333	     -4.73623869	     -0.37672500	      2.68441677	      0.53009104	      1.00255750	      0.34453793	     12.28086502	      4.19220394	      2.90281621	    -18.41103374	     12.91104652	     -8.28740047	      1.21004606	     25.44410054	     -1.05757190	      0.10780160	    -68.87779297	      3.99966243	     -2.52616802	      4.23996383	     -6.67970245	      8.23936230	     -0.27771117
      1.08200000	     -4.69915367	     -0.23227074	      2.51205627	      0.53469895	      1.00320990	      0.34481591	     11.74038315	      4.08487570	      3.10773611	    -17.97394077	     12.93448089	     -8.27478200	      1.22570700	     25.88854909	     -1.01625168	     -0.07054406	    -68.24133532	      4.41101808	     -2.41154675	      4.16487333	     -6.76653685	      8.02867567	     -0.02807241
      1.08616667	     -4.68026946	     -0.07660615	      2.33293342	      0.53930983	      1.00381939	      0.34505885	     11.22651492	      3.95642108	      3.30502197	    -17.55050026	     12.93403421	     -8.21554311	      1.23621730	     26.33073941	     -0.95379424	     -0.24139547	    -67.54985739	      4.77955405	     -2.35663401	      4.11607656	     -6.83006262	      7.83027442	      0.15053961
      1.09033333	     -4.62758690	      0.07657280	      2.15559853	      0.54394364	      1.00443441	      0.34530232	     10.66826509	      3.82798765	      3.49657871	    -17.11136826	     12.97374277	     -8.17665133	      1.24922700	     26.71872329	     -0.89776464	     -0.40701245	    -66.81331956	      5.10210103	     -2.30650523	      4.05720685	     -6.92846891	      7.61622940	      0.41242922
      1.09450000	     -4.56930608	      0.19935211	      1.98687584	      0.54858260	      1.00500360	      0.34554609	     10.09479695	      3.72855810	      3.68178696	    -16.64780838	     13.02329823	     -8.15448014	      1.26716294	     27.09437201	     -0.87337921	     -0.55374322	    -66.05046553	      5.37543158	     -2.29189309	      3.97254381	     -7.03609030	      7.40444476	      0.73695250
      1.09866667	     -4.52997308	      0.32583229	      1.80613266	      0.55322166	      1.00552464	      0.34576245	      9.54667012	      3.61771960	      3.87364679	    -16.19208705	     13.03500928	     -8.09431370	      1.29312628	     27.46864444	     -0.83545102	     -0.68889060	    -65.23909952	      5.62490742	     -2.32619188	      3.85207150	     -7.12708487	      7.21783075	      1.01886942
      1.10283333	     -4.47018218	      0.48023669	      1.62841282	      0.55787565	      1.00603390	      0.34595306	      8.98541116	      3.46851778	      4.02937620	    -15.76091539	     13.10361696	     -8.01417503	      1.31181537	     27.79655519	     -0.76390649	     -0.82191700	    -64.37092191	      5.81071710	     -2.37863484	      3.77380584	     -7.21881764	      7.00887153	      1.21828407
      1.10700000	     -4.42041137	      0.61397887	      1.44637124	      0.56253243	      1.00648376	      0.34614137	      8.43289467	      3.33713756	      4.19219204	    -15.32036547	     13.15252837	     -7.91703169	      1.33154544	     28.12234394	     -0.70993484	     -0.93614914	    -63.47221541	      5.97261297	     -2.46457187	      3.69234740	     -7.30888618	      6.81924247	      1.46454150
      1.11116667	     -4.36408742	      0.74491449	      1.26619047	      0.56720128	      1.00691472	      0.34630405	      7.87015451	      3.20176408	      4.34392541	    -14.87177040	     13.20060478	     -7.81137764	      1.35160702	     28.42187567	     -0.65200069	     -1.03429353	    -62.52983695	      6.09345404	     -2.57671768	      3.61240561	     -7.40504327	      6.63727921	      1.70133556
